<svg width="128" height="128" viewBox="0 0 128 128" fill="none" xmlns="http://www.w3.org/2000/svg">
<path d="M64.2814 0.566071C29.1359 0.566071 0.562988 29.139 0.562988 64.2845C0.562988 99.4189 29.1359 127.992 64.2814 127.992C99.4158 127.992 128 99.419 128 64.2734C127.989 29.139 99.4158 0.566071 64.2814 0.566071ZM91.5521 79.9681L68.3977 103.123C67.8655 103.655 67.2139 104.089 66.5079 104.382C65.7803 104.676 65.0309 104.828 64.2815 104.828C63.5322 104.828 62.7719 104.676 62.066 104.382C61.3492 104.089 60.7084 103.666 60.1763 103.123L37.0218 79.9681C34.7628 77.7091 34.7628 74.0383 37.0218 71.7793C39.2808 69.5204 42.9516 69.5204 45.2106 71.7793L58.482 85.0507V29.5313C58.482 26.3384 61.0776 23.7428 64.2705 23.7428C67.4634 23.7428 70.059 26.3384 70.059 29.5313V85.0619L83.3304 71.7905C85.5894 69.5315 89.2602 69.5315 91.5192 71.7905C93.7999 74.0386 93.8111 77.6983 91.5521 79.9681Z" fill="#9C64FB"/>
</svg>
